<?xml version="1.0" encoding="UTF-8" standalone="no"?>
<!DOCTYPE svg PUBLIC "-//W3C//DTD SVG 1.1//EN" "http://www.w3.org/Graphics/SVG/1.1/DTD/svg11.dtd">
<!-- Created with Vectornator (http://vectornator.io/) -->
<svg height="100%" stroke-miterlimit="10" style="fill-rule:nonzero;clip-rule:evenodd;stroke-linecap:round;stroke-linejoin:round;" version="1.1" viewBox="0 0 375 375" width="100%" xml:space="preserve" xmlns="http://www.w3.org/2000/svg" xmlns:vectornator="http://vectornator.io" xmlns:xlink="http://www.w3.org/1999/xlink">
<defs>
<clipPath id="TextBounds">
<rect height="72.1986" width="289.52" x="51.4033" y="168.581"/>
</clipPath>
</defs>
<clipPath id="ArtboardFrame">
<rect height="375" width="375" x="0" y="0"/>
</clipPath>
<g clip-path="url(#ArtboardFrame)" id="Untitled" vectornator:layerName="Untitled">
<g opacity="1">
<clipPath id="ClipPath">
<path d="M0 0L375 0L375 382.5L0 382.5L0 0Z"/>
</clipPath>
<g clip-path="url(#ClipPath)"/>
</g>
<g opacity="1">
<clipPath id="ClipPath_2">
<path d="M0 0L375 0L375 375L0 375L0 0Z"/>
</clipPath>
<g clip-path="url(#ClipPath_2)"/>
</g>
<g opacity="1">
<clipPath id="ClipPath_3">
<path d="M0 0L375 0L375 375L0 375L0 0Z"/>
</clipPath>
<g clip-path="url(#ClipPath_3)"/>
</g>
<clipPath id="ClipPath_4">
<path d="M-2.22045e-14-3.9968e-15L375-3.9968e-15L375 375L-2.22045e-14 375L-2.22045e-14-3.9968e-15Z"/>
</clipPath>
<g clip-path="url(#ClipPath_4)">
<g fill="#014b21" opacity="1" stroke="none">
<path clip-path="url(#TextBounds)" d="M54.1433 179.392L54.1433 177.283L64.2288 177.48L73.5232 177.283L73.5232 179.392C70.9085 179.436 69.3209 179.551 68.7606 179.738C68.2003 179.925 67.8103 180.183 67.5906 180.513C67.3269 180.952 67.1621 182.018 67.0962 183.71C67.0742 184.149 67.0303 187.269 66.9644 193.07L66.9644 197.651C71.293 197.805 76.5664 197.882 82.7847 197.882C87.5527 197.882 91.365 197.805 94.2214 197.651L94.2214 193.07C94.2214 190.082 94.1775 187.159 94.0896 184.303C94.0237 182.215 93.8644 180.979 93.6117 180.595C93.359 180.21 92.9525 179.925 92.3922 179.738C91.8319 179.551 90.2444 179.436 87.6297 179.392L87.6297 177.283C92.3538 177.414 95.5947 177.48 97.3526 177.48C98.0117 177.48 101.22 177.414 106.977 177.283L106.977 179.392C104.384 179.436 102.802 179.551 102.23 179.738C101.659 179.925 101.275 180.183 101.077 180.513C100.791 180.952 100.615 182.018 100.55 183.71C100.528 184.149 100.484 187.269 100.418 193.07L100.418 208.33C100.418 211.318 100.462 214.23 100.55 217.064C100.594 219.151 100.742 220.393 100.995 220.788C101.247 221.184 101.659 221.475 102.23 221.662C102.802 221.849 104.384 221.964 106.977 222.008L106.977 224.117C102.736 223.942 99.2642 223.854 96.5615 223.854C93.6831 223.854 90.7058 223.942 87.6297 224.117L87.6297 222.008C90.2444 221.964 91.8319 221.849 92.3922 221.662C92.9525 221.475 93.3425 221.217 93.5623 220.887C93.8479 220.448 94.0127 219.382 94.0567 217.69C94.0786 217.229 94.1336 214.109 94.2214 208.33L94.2214 200.815C88.0691 200.683 83.3999 200.618 80.2139 200.618C76.7422 200.618 72.3257 200.683 66.9644 200.815L66.9644 208.33C66.9644 211.318 66.9973 214.23 67.0632 217.064C67.1292 219.151 67.2885 220.393 67.5412 220.788C67.7938 221.184 68.2003 221.475 68.7606 221.662C69.3209 221.849 70.9085 221.964 73.5232 222.008L73.5232 224.117C70.5569 223.92 67.5027 223.821 64.3606 223.821C60.9329 223.821 57.5271 223.92 54.1433 224.117L54.1433 222.008C56.7361 221.964 58.3181 221.849 58.8894 221.662C59.4607 221.475 59.8562 221.217 60.0759 220.887C60.3396 220.448 60.5044 219.382 60.5703 217.69C60.5923 217.229 60.6362 214.109 60.7022 208.33L60.7022 193.07C60.7022 190.082 60.6692 187.159 60.6033 184.303C60.5374 182.215 60.3781 180.979 60.1254 180.595C59.8727 180.21 59.4662 179.925 58.9059 179.738C58.3456 179.551 56.7581 179.436 54.1433 179.392Z"/>
<path clip-path="url(#TextBounds)" d="M117.805 201.013C117.805 197.541 118.327 194.333 119.371 191.389C120.415 188.445 122.145 185.797 124.562 183.446C126.979 181.095 129.715 179.321 132.769 178.123C135.823 176.926 139.317 176.327 143.25 176.327C146.875 176.327 150.171 176.838 153.137 177.859C156.104 178.881 158.537 180.232 160.438 181.913C162.339 183.594 163.838 185.434 164.937 187.434C165.772 188.928 166.436 190.686 166.931 192.707C167.425 194.729 167.672 196.893 167.672 199.2C167.672 206.605 165.184 212.768 160.207 217.69C155.23 222.612 148.952 225.073 141.371 225.073C137.921 225.073 134.702 224.513 131.714 223.392C128.726 222.272 126.199 220.607 124.134 218.399C122.068 216.191 120.497 213.51 119.42 210.357C118.344 207.204 117.805 204.089 117.805 201.013ZM124.661 198.277C124.661 200.365 124.87 202.485 125.287 204.639C125.705 206.792 126.232 208.649 126.869 210.209C127.924 212.845 129.303 215.059 131.006 216.85C132.708 218.641 134.609 219.959 136.707 220.805C138.806 221.651 141.129 222.074 143.678 222.074C147.216 222.074 150.292 221.211 152.907 219.487C155.521 217.762 157.472 215.334 158.757 212.203C160.042 209.072 160.685 205.463 160.685 201.376C160.685 197.882 160.224 194.663 159.301 191.719C158.73 189.917 157.971 188.285 157.027 186.824C156.082 185.363 154.956 184.089 153.648 183.001C152.341 181.913 150.644 180.996 148.556 180.249C146.469 179.502 144.217 179.128 141.8 179.128C138.306 179.128 135.241 179.908 132.604 181.468C129.967 183.028 127.984 185.286 126.655 188.241C125.326 191.197 124.661 194.542 124.661 198.277Z"/>
<path clip-path="url(#TextBounds)" d="M178.007 179.392L178.007 177.283C180.314 177.37 182.522 177.414 184.632 177.414C186.763 177.414 188.806 177.37 190.762 177.283C192.696 181.677 194.464 185.533 196.068 188.851L208.56 214.559L219.832 190.994C222.908 184.578 224.962 180.007 225.995 177.283C228.324 177.37 230.291 177.414 231.895 177.414C233.367 177.414 235.751 177.37 239.047 177.283L239.047 179.392C236.432 179.436 234.845 179.551 234.284 179.738C233.724 179.925 233.334 180.183 233.114 180.513C232.829 180.952 232.664 182.018 232.62 183.71C232.598 184.149 232.543 187.269 232.455 193.07L232.455 208.33C232.455 211.318 232.499 214.23 232.587 217.064C232.653 219.151 232.812 220.393 233.065 220.788C233.318 221.184 233.724 221.475 234.284 221.662C234.845 221.849 236.432 221.964 239.047 222.008L239.047 224.117C234.608 223.92 231.477 223.821 229.654 223.821C228.181 223.821 224.929 223.92 219.898 224.117L219.898 222.008C222.512 221.964 224.105 221.849 224.677 221.662C225.248 221.475 225.633 221.217 225.83 220.887C226.116 220.448 226.281 219.382 226.325 217.69C226.347 217.229 226.402 214.109 226.49 208.33L226.49 184.138L215.119 207.934C213.339 211.648 211.944 214.636 210.933 216.899C210.208 218.547 209.109 221.162 207.637 224.744L206.352 224.744C206.066 223.909 205.802 223.238 205.561 222.733L203.319 217.954L187.565 185.226L187.565 208.33C187.565 211.318 187.609 214.23 187.697 217.064C187.763 219.151 187.922 220.393 188.175 220.788C188.427 221.184 188.834 221.475 189.394 221.662C189.954 221.849 191.542 221.964 194.157 222.008L194.157 224.117L186.214 223.854L178.007 224.117L178.007 222.008C180.6 221.964 182.182 221.849 182.753 221.662C183.324 221.475 183.72 221.217 183.939 220.887C184.203 220.448 184.368 219.382 184.434 217.69C184.456 217.229 184.5 214.109 184.566 208.33L184.566 193.07C184.566 190.082 184.533 187.159 184.467 184.303C184.401 182.215 184.242 180.979 183.989 180.595C183.736 180.21 183.33 179.925 182.769 179.738C182.209 179.551 180.622 179.436 178.007 179.392Z"/>
<path clip-path="url(#TextBounds)" d="M250.436 224.117L250.436 222.041C252.743 222.019 254.259 221.843 254.984 221.514C255.292 221.382 255.512 221.173 255.644 220.887C255.863 220.448 256.017 219.294 256.105 217.427C256.237 214.526 256.303 212.021 256.303 209.912L256.303 193.07C256.303 190.082 256.27 187.159 256.204 184.303C256.138 182.215 255.979 180.979 255.726 180.595C255.473 180.21 255.067 179.925 254.506 179.738C253.946 179.551 252.359 179.436 249.744 179.392L249.744 177.283L259.137 177.48L269.091 177.316C273.859 177.25 277.32 177.217 279.473 177.217C281.648 177.217 283.703 177.338 285.636 177.579C285.285 178.832 285.043 179.919 284.911 180.842C284.867 181.04 284.669 183.325 284.318 187.698L282.241 187.698C282.263 185.456 282.121 183.413 281.813 181.567C280.605 181.062 279.275 180.721 277.825 180.546C275.364 180.238 272.903 180.084 270.442 180.084C269.915 180.084 268.739 180.128 266.916 180.216C265.092 180.304 263.784 180.381 262.993 180.447C262.906 182.886 262.84 185.171 262.796 187.302L262.664 198.442C265.235 198.574 267.597 198.64 269.75 198.64C272.365 198.64 274.595 198.519 276.441 198.277C277.144 198.19 277.594 198.014 277.792 197.75C277.99 197.486 278.166 196.586 278.319 195.047L278.517 192.74L280.495 192.74L280.495 193.367L280.33 200.222L280.495 207.901L278.188 207.901L278.089 205.66C278.045 204.034 277.896 203.024 277.644 202.628C277.391 202.233 276.913 201.958 276.21 201.804C274.958 201.54 272.53 201.409 268.926 201.409C267.454 201.409 265.366 201.463 262.664 201.573C262.554 203.771 262.499 207.034 262.499 211.362C262.499 215.427 262.554 218.514 262.664 220.624C265.828 220.865 269.376 220.986 273.31 220.986C276.1 220.986 278.089 220.898 279.275 220.723C280.462 220.547 281.56 220.25 282.571 219.833C282.835 219.151 283.098 218.229 283.362 217.064C283.845 215.109 284.164 213.636 284.318 212.648L286.493 212.648C285.922 217.086 285.636 220.766 285.636 223.689C283.747 223.974 281.45 224.117 278.748 224.117L259.071 223.854C258.786 223.854 255.907 223.942 250.436 224.117Z"/>
<path clip-path="url(#TextBounds)" d="M298.97 222.502C299.322 220.393 299.53 216.976 299.596 212.252L301.837 212.252C301.947 215.46 302.129 217.355 302.381 217.937C302.634 218.52 303.244 219.141 304.21 219.8C305.177 220.459 306.474 221.047 308.1 221.563C309.726 222.079 311.297 222.338 312.813 222.338C315.032 222.338 317.075 221.827 318.943 220.805C320.811 219.783 322.173 218.443 323.03 216.784C323.887 215.125 324.315 213.351 324.315 211.461C324.315 210.011 324.101 208.758 323.673 207.704C323.244 206.649 322.591 205.798 321.712 205.149C320.833 204.501 319.745 204.045 318.449 203.782C317.636 203.65 316.01 203.43 313.571 203.122C311.132 202.815 309.055 202.474 307.342 202.101C305.056 201.398 303.376 200.574 302.299 199.629C301.222 198.684 300.349 197.443 299.679 195.904C299.008 194.366 298.673 192.707 298.673 190.928C298.673 188.335 299.349 185.89 300.7 183.594C302.052 181.298 304.051 179.513 306.699 178.238C309.347 176.964 312.219 176.327 315.318 176.327C317.185 176.327 319.223 176.574 321.432 177.068C323.64 177.563 325.7 178.282 327.611 179.227C327.304 180.611 327.084 181.902 326.952 183.1C326.82 184.297 326.721 186.061 326.656 188.39L324.414 188.39C324.348 185.006 324.25 183.16 324.118 182.853C323.568 182.062 322.821 181.348 321.876 180.71C319.613 179.436 317.251 178.799 314.79 178.799C311.604 178.799 309.061 179.771 307.16 181.716C305.26 183.66 304.309 186.182 304.309 189.28C304.309 191.147 304.65 192.592 305.331 193.614C306.012 194.635 307.232 195.454 308.99 196.069C310.198 196.487 312.176 196.877 314.922 197.239C317.669 197.602 320.141 197.992 322.338 198.409C324.403 199.025 325.93 199.755 326.919 200.601C327.908 201.447 328.721 202.557 329.358 203.93C329.995 205.303 330.314 206.913 330.314 208.758C330.314 213.131 328.501 216.943 324.876 220.195C321.25 223.447 316.559 225.073 310.802 225.073C306.452 225.073 302.508 224.216 298.97 222.502Z"/>
</g>
<path d="M66.9073 117.376L66.9073 166.291" fill="none" opacity="1" stroke="#014b21" stroke-linecap="butt" stroke-linejoin="miter" stroke-width="0.770967"/>
<path d="M125.139 117.376L125.139 166.291" fill="none" opacity="1" stroke="#014b21" stroke-linecap="butt" stroke-linejoin="miter" stroke-width="0.770967"/>
<path d="M96.5311 92.8361L51.6828 129.446" fill="none" opacity="1" stroke="#014b21" stroke-linecap="butt" stroke-linejoin="miter" stroke-width="0.77334"/>
<path d="M95.951 92.837L140.038 129.369" fill="none" opacity="1" stroke="#014b21" stroke-linecap="butt" stroke-linejoin="miter" stroke-width="0.770467"/>
<path d="M113.516 93.0684L113.516 107.131" fill="none" opacity="1" stroke="#014b21" stroke-linecap="butt" stroke-linejoin="miter" stroke-width="0.778181"/>
<path d="M118.719 93.0689L118.719 111.068" fill="none" opacity="1" stroke="#014b21" stroke-linecap="butt" stroke-linejoin="miter" stroke-width="0.769661"/>
<path d="M118.715 93.6274L114.342 93.6274" fill="none" opacity="1" stroke="#014b21" stroke-linecap="butt" stroke-linejoin="miter" stroke-width="0.762272"/>
<path d="M162.487 117.376L162.487 166.291" fill="none" opacity="1" stroke="#014b21" stroke-linecap="butt" stroke-linejoin="miter" stroke-width="0.770967"/>
<path d="M220.719 117.376L220.719 166.291" fill="none" opacity="1" stroke="#014b21" stroke-linecap="butt" stroke-linejoin="miter" stroke-width="0.770967"/>
<path d="M192.111 92.8361L147.263 129.446" fill="none" opacity="1" stroke="#014b21" stroke-linecap="butt" stroke-linejoin="miter" stroke-width="0.77334"/>
<path d="M191.531 92.837L235.618 129.369" fill="none" opacity="1" stroke="#014b21" stroke-linecap="butt" stroke-linejoin="miter" stroke-width="0.770467"/>
<path d="M209.096 93.0684L209.096 107.131" fill="none" opacity="1" stroke="#014b21" stroke-linecap="butt" stroke-linejoin="miter" stroke-width="0.778181"/>
<path d="M214.299 93.0689L214.299 111.068" fill="none" opacity="1" stroke="#014b21" stroke-linecap="butt" stroke-linejoin="miter" stroke-width="0.769661"/>
<path d="M214.296 93.6274L209.922 93.6274" fill="none" opacity="1" stroke="#014b21" stroke-linecap="butt" stroke-linejoin="miter" stroke-width="0.762272"/>
<path d="M257.822 117.376L257.822 166.291" fill="none" opacity="1" stroke="#014b21" stroke-linecap="butt" stroke-linejoin="miter" stroke-width="0.770967"/>
<path d="M316.054 117.376L316.054 166.291" fill="none" opacity="1" stroke="#014b21" stroke-linecap="butt" stroke-linejoin="miter" stroke-width="0.770967"/>
<path d="M287.445 92.8361L242.597 129.446" fill="none" opacity="1" stroke="#014b21" stroke-linecap="butt" stroke-linejoin="miter" stroke-width="0.77334"/>
<path d="M286.865 92.837L330.952 129.369" fill="none" opacity="1" stroke="#014b21" stroke-linecap="butt" stroke-linejoin="miter" stroke-width="0.770467"/>
<path d="M304.43 93.0684L304.43 107.131" fill="none" opacity="1" stroke="#014b21" stroke-linecap="butt" stroke-linejoin="miter" stroke-width="0.778181"/>
<path d="M309.633 93.0689L309.633 111.068" fill="none" opacity="1" stroke="#014b21" stroke-linecap="butt" stroke-linejoin="miter" stroke-width="0.769661"/>
<path d="M309.63 93.6274L305.256 93.6274" fill="none" opacity="1" stroke="#014b21" stroke-linecap="butt" stroke-linejoin="miter" stroke-width="0.762272"/>
</g>
</g>
</svg>
